<svg xmlns="http://www.w3.org/2000/svg" xmlns:xlink="http://www.w3.org/1999/xlink" width="2000" zoomAndPan="magnify" viewBox="0 0 1500 1499.999933" height="2000" preserveAspectRatio="xMidYMid meet" version="1.0"><defs><g/><clipPath id="a54caf9851"><rect x="0" width="897" y="0" height="1477"/></clipPath><clipPath id="157c94b624"><rect x="0" width="1193" y="0" height="166"/></clipPath><clipPath id="76e396b253"><rect x="0" width="644" y="0" height="1477"/></clipPath></defs><g transform="matrix(1, 0, 0, 1, 446, 0.000000000000112861)"><g clip-path="url(#a54caf9851)"><g fill="#ffffff" fill-opacity="1"><g transform="translate(160.420761, 1049.847785)"><g><path d="M -102.316406 -538.386719 C -133.183594 -575.230469 -148.621094 -613.234375 -148.621094 -652.390625 C -148.621094 -689.316406 -139.675781 -721.722656 -121.789062 -749.609375 C -104.113281 -777.160156 -76.890625 -799.890625 -40.121094 -817.789062 C -4.78125 -834.992188 34.710938 -843.59375 78.355469 -843.59375 L 543.941406 -843.59375 C 564.890625 -843.59375 588.316406 -845.667969 614.21875 -849.8125 C 639.121094 -853.796875 655.609375 -857.402344 663.6875 -860.636719 L 728.902344 -886.722656 L 728.902344 -620.851562 L 622.4375 -631.5 L 622.4375 -693.839844 C 622.4375 -699.144531 620.484375 -703.808594 616.578125 -707.832031 C 612.484375 -712.042969 608.027344 -714.253906 603.199219 -714.464844 L 605.265625 -761.972656 L 605.265625 -714.421875 L 389.503906 -714.421875 L 389.503906 -761.972656 L 437.058594 -761.972656 L 437.058594 -81.761719 L 389.503906 -81.761719 L 437.039062 -83.082031 C 437.191406 -77.667969 438.199219 -73.386719 440.066406 -70.234375 C 441.910156 -67.121094 445.128906 -64.230469 449.722656 -61.5625 L 425.84375 -20.441406 L 448.222656 -62.398438 C 452.582031 -60.074219 457.238281 -58.910156 462.179688 -58.910156 L 524.496094 -58.910156 L 524.496094 47.554688 L 180.699219 47.554688 L 180.699219 -58.910156 L 243.015625 -58.910156 C 249.820312 -58.910156 255.609375 -61.234375 260.386719 -65.878906 C 265.328125 -70.6875 267.925781 -76.238281 268.175781 -82.527344 L 315.691406 -80.625 L 268.136719 -80.625 L 268.136719 -761.972656 L 315.691406 -761.972656 L 315.691406 -714.421875 L 78.355469 -714.421875 C 34.21875 -714.421875 3.257812 -701.824219 -14.523438 -676.636719 C -23.105469 -664.886719 -27.394531 -653.398438 -27.394531 -642.171875 C -27.394531 -628.292969 -23.105469 -613.042969 -14.523438 -596.414062 L 5.566406 -557.492188 L -75.746094 -506.671875 Z M -29.414062 -599.464844 L -65.863281 -568.925781 L -91.066406 -609.25 L -81.984375 -614.929688 L -56.777344 -574.605469 L -99.035156 -552.792969 C -114.679688 -583.105469 -122.503906 -612.894531 -122.503906 -642.171875 C -122.503906 -674.097656 -112.410156 -703.867188 -92.222656 -731.484375 C -55.496094 -783.511719 1.363281 -809.527344 78.355469 -809.527344 L 363.246094 -809.527344 L 363.246094 -79.675781 L 363.207031 -78.726562 C 361.945312 -47.164062 349.777344 -20.160156 326.710938 2.285156 C 303.472656 24.894531 275.574219 36.199219 243.015625 36.199219 L 228.25 36.199219 L 228.25 -11.355469 L 275.804688 -11.355469 L 275.804688 0 L 228.25 0 L 228.25 -47.554688 L 476.945312 -47.554688 L 476.945312 0 L 429.390625 0 L 429.390625 -11.355469 L 476.945312 -11.355469 L 476.945312 36.199219 L 462.179688 36.199219 C 441.386719 36.199219 421.8125 31.304688 403.464844 21.519531 L 402.707031 21.113281 L 401.964844 20.683594 C 383.085938 9.722656 368.515625 -4.421875 358.246094 -21.746094 C 348 -39.035156 342.574219 -58.601562 341.96875 -80.441406 L 341.949219 -81.101562 L 341.949219 -809.527344 L 606.296875 -809.527344 L 607.328125 -809.484375 C 637.328125 -808.179688 663.148438 -796.386719 684.796875 -774.101562 C 706.628906 -751.625 717.546875 -724.871094 717.546875 -693.839844 L 717.546875 -674.535156 L 669.992188 -674.535156 L 674.722656 -721.851562 L 686.078125 -720.71875 L 681.347656 -673.398438 L 633.792969 -673.398438 L 633.792969 -816.480469 L 681.347656 -816.480469 L 699.007812 -772.328125 C 684.375 -766.476562 661.121094 -761 629.242188 -755.898438 C 598.367188 -750.957031 569.933594 -748.488281 543.941406 -748.488281 L 78.355469 -748.488281 C 49.324219 -748.488281 23.707031 -743.085938 1.511719 -732.277344 C -19.257812 -722.167969 -33.671875 -710.828125 -41.734375 -698.253906 C -49.585938 -686.015625 -53.511719 -670.730469 -53.511719 -652.390625 C -53.511719 -636.285156 -45.480469 -618.640625 -29.414062 -599.464844 Z M -29.414062 -599.464844 "/></g></g></g><g fill="#000000" fill-opacity="1"><g transform="translate(160.420761, 1049.847785)"><g><path d="M -65.859375 -568.921875 C -89.328125 -596.929688 -101.0625 -624.753906 -101.0625 -652.390625 C -101.0625 -680.023438 -94.625 -703.875 -81.75 -723.9375 C -68.882812 -744 -48.066406 -761.03125 -19.296875 -775.03125 C 9.472656 -789.039062 42.023438 -796.046875 78.359375 -796.046875 L 543.953125 -796.046875 C 567.421875 -796.046875 593.347656 -798.316406 621.734375 -802.859375 C 650.117188 -807.398438 669.992188 -811.941406 681.359375 -816.484375 L 681.359375 -673.390625 L 670 -674.53125 L 670 -693.84375 C 670 -712.007812 663.5625 -727.71875 650.6875 -740.96875 C 637.820312 -754.21875 622.679688 -761.21875 605.265625 -761.96875 L 389.515625 -761.96875 L 389.515625 -81.765625 C 390.265625 -54.503906 402.375 -34.0625 425.84375 -20.4375 C 437.195312 -14.382812 449.3125 -11.359375 462.1875 -11.359375 L 476.953125 -11.359375 L 476.953125 0 L 228.25 0 L 228.25 -11.359375 L 243.015625 -11.359375 C 262.703125 -11.359375 279.546875 -18.171875 293.546875 -31.796875 C 307.554688 -45.421875 314.941406 -61.695312 315.703125 -80.625 L 315.703125 -761.96875 L 78.359375 -761.96875 C 17.796875 -761.96875 -26.109375 -742.664062 -53.359375 -704.0625 C -67.742188 -684.375 -74.9375 -663.742188 -74.9375 -642.171875 C -74.9375 -620.597656 -68.882812 -598.078125 -56.78125 -574.609375 Z M -65.859375 -568.921875 "/></g></g></g></g></g><g transform="matrix(1, 0, 0, 1, 153, 1312)"><g clip-path="url(#157c94b624)"><g fill="#000000" fill-opacity="1"><g transform="translate(3.037847, 123.577222)"><g><path d="M 34.390625 0.828125 C 28.972656 0.828125 24.203125 -0.113281 20.078125 -2 C 15.960938 -3.882812 12.722656 -6.515625 10.359375 -9.890625 C 8.003906 -13.265625 6.75 -17.035156 6.59375 -21.203125 L 15.3125 -21.203125 C 15.707031 -17.203125 17.472656 -13.6875 20.609375 -10.65625 C 23.753906 -7.632812 28.347656 -6.125 34.390625 -6.125 C 39.972656 -6.125 44.390625 -7.554688 47.640625 -10.421875 C 50.898438 -13.285156 52.53125 -16.921875 52.53125 -21.328125 C 52.53125 -24.859375 51.628906 -27.703125 49.828125 -29.859375 C 48.023438 -32.015625 45.785156 -33.625 43.109375 -34.6875 C 40.441406 -35.75 36.753906 -36.910156 32.046875 -38.171875 C 26.546875 -39.660156 22.1875 -41.109375 18.96875 -42.515625 C 15.75 -43.929688 13 -46.128906 10.71875 -49.109375 C 8.4375 -52.097656 7.296875 -56.144531 7.296875 -61.25 C 7.296875 -65.488281 8.394531 -69.273438 10.59375 -72.609375 C 12.800781 -75.953125 15.90625 -78.566406 19.90625 -80.453125 C 23.914062 -82.335938 28.507812 -83.28125 33.6875 -83.28125 C 41.300781 -83.28125 47.445312 -81.414062 52.125 -77.6875 C 56.800781 -73.957031 59.488281 -69.144531 60.1875 -63.25 L 51.234375 -63.25 C 50.691406 -66.632812 48.847656 -69.640625 45.703125 -72.265625 C 42.566406 -74.898438 38.328125 -76.21875 32.984375 -76.21875 C 28.035156 -76.21875 23.910156 -74.898438 20.609375 -72.265625 C 17.316406 -69.640625 15.671875 -66.046875 15.671875 -61.484375 C 15.671875 -58.035156 16.570312 -55.25 18.375 -53.125 C 20.175781 -51.007812 22.429688 -49.398438 25.140625 -48.296875 C 27.859375 -47.191406 31.53125 -46.015625 36.15625 -44.765625 C 41.5 -43.273438 45.816406 -41.800781 49.109375 -40.34375 C 52.410156 -38.894531 55.203125 -36.675781 57.484375 -33.6875 C 59.765625 -30.707031 60.90625 -26.703125 60.90625 -21.671875 C 60.90625 -17.828125 59.882812 -14.175781 57.84375 -10.71875 C 55.800781 -7.257812 52.773438 -4.46875 48.765625 -2.34375 C 44.765625 -0.226562 39.972656 0.828125 34.390625 0.828125 Z M 34.390625 0.828125 "/></g></g></g><g fill="#000000" fill-opacity="1"><g transform="translate(94.07413, 123.577222)"><g><path d="M 70.5625 -82.34375 L 70.5625 0 L 62.3125 0 L 62.3125 -38.515625 L 17.671875 -38.515625 L 17.671875 0 L 9.421875 0 L 9.421875 -82.34375 L 17.671875 -82.34375 L 17.671875 -45.359375 L 62.3125 -45.359375 L 62.3125 -82.34375 Z M 70.5625 -82.34375 "/></g></g></g><g fill="#000000" fill-opacity="1"><g transform="translate(197.710394, 123.577222)"><g><path d="M 57.125 -19.546875 L 19.671875 -19.546875 L 12.484375 0 L 3.765625 0 L 33.8125 -81.28125 L 43.109375 -81.28125 L 73.03125 0 L 64.3125 0 Z M 54.65625 -26.390625 L 38.40625 -70.90625 L 22.140625 -26.390625 Z M 54.65625 -26.390625 "/></g></g></g><g fill="#000000" fill-opacity="1"><g transform="translate(298.167254, 123.577222)"><g><path d="M 74.21875 -58.3125 C 71.851562 -63.726562 68.253906 -67.988281 63.421875 -71.09375 C 58.597656 -74.195312 52.925781 -75.75 46.40625 -75.75 C 40.28125 -75.75 34.78125 -74.332031 29.90625 -71.5 C 25.039062 -68.675781 21.195312 -64.648438 18.375 -59.421875 C 15.550781 -54.203125 14.140625 -48.140625 14.140625 -41.234375 C 14.140625 -34.316406 15.550781 -28.226562 18.375 -22.96875 C 21.195312 -17.707031 25.039062 -13.660156 29.90625 -10.828125 C 34.78125 -8.003906 40.28125 -6.59375 46.40625 -6.59375 C 52.144531 -6.59375 57.3125 -7.828125 61.90625 -10.296875 C 66.5 -12.773438 70.1875 -16.3125 72.96875 -20.90625 C 75.757812 -25.5 77.351562 -30.859375 77.75 -36.984375 L 43.109375 -36.984375 L 43.109375 -43.703125 L 86.46875 -43.703125 L 86.46875 -37.6875 C 86.070312 -30.46875 84.101562 -23.929688 80.5625 -18.078125 C 77.03125 -12.234375 72.300781 -7.617188 66.375 -4.234375 C 60.445312 -0.859375 53.789062 0.828125 46.40625 0.828125 C 38.789062 0.828125 31.878906 -0.957031 25.671875 -4.53125 C 19.472656 -8.101562 14.585938 -13.085938 11.015625 -19.484375 C 7.441406 -25.890625 5.65625 -33.140625 5.65625 -41.234375 C 5.65625 -49.316406 7.441406 -56.554688 11.015625 -62.953125 C 14.585938 -69.359375 19.472656 -74.347656 25.671875 -77.921875 C 31.878906 -81.492188 38.789062 -83.28125 46.40625 -83.28125 C 55.207031 -83.28125 62.90625 -81.082031 69.5 -76.6875 C 76.09375 -72.289062 80.882812 -66.164062 83.875 -58.3125 Z M 74.21875 -58.3125 "/></g></g></g><g fill="#000000" fill-opacity="1"><g transform="translate(413.932483, 123.577222)"><g><path d="M 17.3125 -82.34375 L 17.3125 -30.515625 C 17.3125 -22.347656 19.253906 -16.300781 23.140625 -12.375 C 27.035156 -8.445312 32.359375 -6.484375 39.109375 -6.484375 C 45.859375 -6.484375 51.140625 -8.425781 54.953125 -12.3125 C 58.765625 -16.195312 60.671875 -22.265625 60.671875 -30.515625 L 60.671875 -82.34375 L 68.90625 -82.34375 L 68.90625 -30.625 C 68.90625 -20.175781 66.132812 -12.320312 60.59375 -7.0625 C 55.0625 -1.800781 47.859375 0.828125 38.984375 0.828125 C 30.117188 0.828125 22.914062 -1.800781 17.375 -7.0625 C 11.84375 -12.320312 9.078125 -20.175781 9.078125 -30.625 L 9.078125 -82.34375 Z M 17.3125 -82.34375 "/></g></g></g><g fill="#000000" fill-opacity="1"><g transform="translate(515.449142, 123.577222)"><g><path d="M 71.5 0 L 63.25 0 L 17.671875 -69.265625 L 17.671875 0 L 9.421875 0 L 9.421875 -82.34375 L 17.671875 -82.34375 L 63.25 -13.1875 L 63.25 -82.34375 L 71.5 -82.34375 Z M 71.5 0 "/></g></g></g><g fill="#000000" fill-opacity="1"><g transform="translate(619.909734, 123.577222)"><g/></g></g><g fill="#000000" fill-opacity="1"><g transform="translate(675.854399, 123.577222)"><g><path d="M 57.609375 -82.34375 L 57.609375 -75.5 L 34.75 -75.5 L 34.75 0 L 26.5 0 L 26.5 -75.5 L 3.53125 -75.5 L 3.53125 -82.34375 Z M 57.609375 -82.34375 "/></g></g></g><g fill="#000000" fill-opacity="1"><g transform="translate(760.767282, 123.577222)"><g><path d="M 17.671875 -82.34375 L 17.671875 0 L 9.421875 0 L 9.421875 -82.34375 Z M 17.671875 -82.34375 "/></g></g></g><g fill="#000000" fill-opacity="1"><g transform="translate(811.412874, 123.577222)"><g><path d="M 109.3125 -82.34375 L 85.984375 0 L 76.796875 0 L 56.078125 -70.203125 L 34.875 0 L 25.921875 0.125 L 3.0625 -82.34375 L 11.890625 -82.34375 L 30.75 -10.125 L 51.828125 -82.34375 L 61.015625 -82.34375 L 81.515625 -10.125 L 100.484375 -82.34375 Z M 109.3125 -82.34375 "/></g></g></g><g fill="#000000" fill-opacity="1"><g transform="translate(947.550072, 123.577222)"><g><path d="M 57.125 -19.546875 L 19.671875 -19.546875 L 12.484375 0 L 3.765625 0 L 33.8125 -81.28125 L 43.109375 -81.28125 L 73.03125 0 L 64.3125 0 Z M 54.65625 -26.390625 L 38.40625 -70.90625 L 22.140625 -26.390625 Z M 54.65625 -26.390625 "/></g></g></g><g fill="#000000" fill-opacity="1"><g transform="translate(1048.006932, 123.577222)"><g><path d="M 53.25 0 L 32.859375 -34.390625 L 17.671875 -34.390625 L 17.671875 0 L 9.421875 0 L 9.421875 -82.34375 L 34.15625 -82.34375 C 43.34375 -82.34375 50.3125 -80.140625 55.0625 -75.734375 C 59.820312 -71.335938 62.203125 -65.566406 62.203125 -58.421875 C 62.203125 -52.453125 60.492188 -47.367188 57.078125 -43.171875 C 53.660156 -38.972656 48.613281 -36.242188 41.9375 -34.984375 L 63.140625 0 Z M 17.671875 -41.109375 L 34.28125 -41.109375 C 40.71875 -41.109375 45.566406 -42.675781 48.828125 -45.8125 C 52.085938 -48.957031 53.71875 -53.160156 53.71875 -58.421875 C 53.71875 -63.847656 52.144531 -68.03125 49 -70.96875 C 45.863281 -73.914062 40.914062 -75.390625 34.15625 -75.390625 L 17.671875 -75.390625 Z M 17.671875 -41.109375 "/></g></g></g><g fill="#000000" fill-opacity="1"><g transform="translate(1140.809575, 123.577222)"><g><path d="M 17.671875 -82.34375 L 17.671875 0 L 9.421875 0 L 9.421875 -82.34375 Z M 17.671875 -82.34375 "/></g></g></g></g></g><g transform="matrix(1, 0, 0, 1, 201, 0.000000000000112861)"><g clip-path="url(#76e396b253)"><g fill="#ffffff" fill-opacity="1"><g transform="translate(6.701221, 1049.847785)"><g><path d="M 172.910156 -273.179688 C 140.0625 -230.222656 123.636719 -184.207031 123.636719 -135.132812 C 123.636719 -107.578125 129.203125 -83.515625 140.335938 -62.945312 C 151.492188 -42.320312 168.695312 -24.359375 191.941406 -9.058594 C 219.019531 9.1875 249.859375 18.308594 284.464844 18.308594 C 320.804688 18.308594 351.75 11.476562 377.296875 -2.1875 C 400.839844 -14.398438 418.9375 -30.308594 431.59375 -49.917969 C 444.679688 -70.191406 452.730469 -95.269531 455.75 -125.152344 L 455.847656 -126.125 L 455.984375 -127.097656 C 456.425781 -130.164062 456.644531 -133.222656 456.644531 -136.269531 C 456.644531 -157.109375 450.425781 -180.570312 437.992188 -206.652344 C 425.679688 -232.476562 405.046875 -256.71875 376.09375 -279.378906 L 171.542969 -440.746094 C 114.8125 -484.976562 86.445312 -542.464844 86.445312 -613.214844 C 86.445312 -680.949219 108.484375 -738.496094 152.558594 -785.855469 C 197.546875 -834.191406 257.222656 -858.359375 331.589844 -858.359375 C 365.207031 -858.359375 401.4375 -854.226562 440.28125 -845.960938 L 430.386719 -799.449219 L 430.386719 -847.003906 L 522.59375 -847.003906 L 526.414062 -612.21875 L 420.148438 -612.21875 L 419.179688 -658.78125 C 418.726562 -680.535156 411.457031 -697.191406 397.375 -708.753906 C 380.78125 -722.375 359.042969 -729.183594 332.15625 -729.183594 C 306.921875 -729.183594 286.058594 -721.0625 269.578125 -704.820312 C 253.289062 -688.773438 245.144531 -667.511719 245.144531 -641.035156 C 245.144531 -616.582031 255.816406 -595.863281 277.160156 -578.886719 L 487.097656 -413.207031 C 582.4375 -337.800781 630.105469 -245.867188 630.105469 -137.40625 C 630.105469 -53.679688 597.253906 17.886719 531.546875 77.289062 C 474.804688 128.628906 400.582031 154.296875 308.878906 154.296875 C 253.210938 154.296875 203.199219 143.652344 158.84375 122.363281 C 116.402344 102.496094 82.117188 75.222656 55.988281 40.535156 C 30.050781 6.109375 12.820312 -34.890625 4.292969 -82.457031 C 1.523438 -97.214844 0.140625 -115.34375 0.140625 -136.835938 C 0.140625 -160.472656 6.234375 -190.792969 18.425781 -227.800781 C 31.195312 -266.566406 55.085938 -304.765625 90.09375 -342.402344 L 119.746094 -374.277344 L 201.558594 -310.644531 Z M 97.359375 -330.949219 L 135.132812 -302.0625 L 105.9375 -264.527344 L 95.71875 -272.476562 L 124.914062 -310.011719 L 159.730469 -277.625 C 134.175781 -250.152344 117.1875 -223.625 108.757812 -198.042969 C 99.75 -170.699219 95.25 -150.296875 95.25 -136.835938 C 95.25 -121.234375 96.136719 -108.703125 97.910156 -99.238281 C 103.765625 -66.554688 115.113281 -39.039062 131.953125 -16.691406 C 148.59375 5.402344 171.277344 23.175781 200 36.621094 C 231.347656 51.667969 267.640625 59.191406 308.878906 59.191406 C 376.15625 59.191406 429.117188 41.707031 467.761719 6.742188 C 512.585938 -33.785156 535 -81.832031 535 -137.40625 C 535 -215.175781 499.390625 -282.222656 428.179688 -338.546875 L 217.953125 -504.457031 C 172.675781 -540.472656 150.039062 -586 150.039062 -641.035156 C 150.039062 -694.050781 167.632812 -737.894531 202.824219 -772.570312 C 237.820312 -807.050781 280.933594 -824.289062 332.15625 -824.289062 C 381.734375 -824.289062 423.589844 -810.28125 457.71875 -782.265625 C 494.355469 -752.1875 513.207031 -711.6875 514.265625 -660.761719 L 466.722656 -659.773438 L 466.722656 -707.324219 L 478.078125 -707.324219 L 478.078125 -659.773438 L 430.53125 -659 L 428.261719 -798.675781 L 475.808594 -799.449219 L 475.808594 -751.894531 L 425.382812 -751.894531 L 420.488281 -752.9375 C 388.167969 -759.8125 358.535156 -763.25 331.589844 -763.25 C 284.828125 -763.25 248.359375 -749.1875 222.179688 -721.058594 C 195.09375 -691.957031 181.550781 -656.007812 181.550781 -613.214844 C 181.550781 -573.429688 197.851562 -540.832031 230.449219 -515.414062 L 434.710938 -354.277344 C 475.40625 -322.425781 505.117188 -286.863281 523.84375 -247.582031 C 542.449219 -208.554688 551.75 -171.449219 551.75 -136.269531 C 551.75 -128.71875 551.214844 -121.175781 550.136719 -113.644531 L 503.0625 -120.371094 L 550.375 -115.59375 C 545.824219 -70.523438 532.867188 -31.441406 511.503906 1.65625 C 489.714844 35.417969 459.929688 62.09375 422.152344 81.675781 C 382.59375 102.835938 336.695312 113.417969 284.464844 113.417969 C 230.488281 113.417969 182.21875 99.070312 139.648438 70.382812 C 103.085938 46.316406 75.433594 16.960938 56.6875 -17.683594 C 37.917969 -52.375 28.53125 -91.523438 28.53125 -135.132812 C 28.53125 -205.671875 51.472656 -270.945312 97.359375 -330.949219 Z M 97.359375 -330.949219 "/></g></g></g><g fill="#000000" fill-opacity="1"><g transform="translate(6.701221, 1049.847785)"><g><path d="M 135.140625 -302.0625 C 95.765625 -250.582031 76.078125 -194.941406 76.078125 -135.140625 C 76.078125 -63.972656 105.984375 -8.707031 165.796875 30.65625 C 200.617188 54.125 240.171875 65.859375 284.453125 65.859375 C 328.742188 65.859375 367.164062 57.15625 399.71875 39.75 C 461.039062 7.945312 495.488281 -45.425781 503.0625 -120.375 C 503.820312 -125.675781 504.203125 -130.972656 504.203125 -136.265625 C 504.203125 -164.273438 496.441406 -194.554688 480.921875 -227.109375 C 465.398438 -259.671875 440.226562 -289.578125 405.40625 -316.828125 L 201 -478.078125 C 156.332031 -512.898438 134 -557.941406 134 -613.203125 C 134 -668.472656 151.789062 -715.222656 187.375 -753.453125 C 222.957031 -791.679688 271.03125 -810.796875 331.59375 -810.796875 C 361.875 -810.796875 394.804688 -807.015625 430.390625 -799.453125 L 475.8125 -799.453125 L 478.078125 -659.765625 L 466.71875 -659.765625 C 465.96875 -696.109375 452.910156 -724.6875 427.546875 -745.5 C 402.179688 -766.320312 370.382812 -776.734375 332.15625 -776.734375 C 293.925781 -776.734375 261.941406 -764.050781 236.203125 -738.6875 C 210.460938 -713.332031 197.59375 -680.78125 197.59375 -641.03125 C 197.59375 -601.289062 214.25 -568.171875 247.5625 -541.671875 L 457.640625 -375.875 C 540.910156 -310.007812 582.546875 -230.519531 582.546875 -137.40625 C 582.546875 -67.757812 554.914062 -7.953125 499.65625 42.015625 C 451.957031 85.171875 388.363281 106.75 308.875 106.75 C 260.425781 106.75 217.273438 97.660156 179.421875 79.484375 C 108.253906 46.179688 65.476562 -10.59375 51.09375 -90.84375 C 48.820312 -102.957031 47.6875 -118.285156 47.6875 -136.828125 C 47.6875 -155.378906 52.984375 -180.742188 63.578125 -212.921875 C 74.179688 -245.097656 94.625 -277.460938 124.90625 -310.015625 Z M 135.140625 -302.0625 "/></g></g></g></g></g></svg>